<svg xmlns="http://www.w3.org/2000/svg" viewBox="0 0 66.51 60.75"><defs><style>.cls-1{fill:none;}.cls-1,.cls-2{stroke:#000;stroke-miterlimit:10;}.cls-2{fill:#fff;}</style></defs><g id="Layer_2" data-name="Layer 2"><g id="Layer_2-2" data-name="Layer 2"><polygon class="cls-1" points="0.71 29.05 29.06 0.7 60.71 31.03 32.36 60.04 0.71 29.05"/><rect x="10.46" y="28.9" width="1.78" height="1.78" transform="translate(-0.34 0.13) rotate(-0.66)"/><rect x="12.56" y="26.75" width="1.78" height="1.78" transform="translate(-0.32 0.16) rotate(-0.66)"/><rect x="14.67" y="24.6" width="1.78" height="1.78" transform="translate(-0.29 0.18) rotate(-0.66)"/><rect x="17.75" y="21.42" width="1.78" height="1.78" transform="translate(-0.25 0.21) rotate(-0.66)"/><rect x="19.86" y="19.27" width="1.78" height="1.78" transform="translate(-0.23 0.24) rotate(-0.66)"/><rect x="22.93" y="16.13" width="1.78" height="1.78" transform="translate(-0.19 0.27) rotate(-0.66)"/><rect x="25.03" y="13.98" width="1.78" height="1.78" transform="translate(-0.17 0.3) rotate(-0.66)"/><rect x="27.13" y="11.83" width="1.78" height="1.78" transform="translate(-0.14 0.32) rotate(-0.66)"/><rect x="13.09" y="31.47" width="1.78" height="1.78" transform="translate(-0.37 0.16) rotate(-0.66)"/><rect x="15.19" y="29.32" width="1.78" height="1.78" transform="translate(-0.34 0.19) rotate(-0.66)"/><rect x="17.29" y="27.17" width="1.78" height="1.78" transform="translate(-0.32 0.21) rotate(-0.66)"/><rect x="19.39" y="25.02" width="1.78" height="1.78" transform="translate(-0.3 0.23) rotate(-0.66)"/><rect x="21.49" y="22.96" width="1.78" height="1.78" transform="translate(-0.27 0.26) rotate(-0.66)"/><rect x="24.67" y="19.71" width="1.78" height="1.78" transform="translate(-0.23 0.29) rotate(-0.66)"/><rect x="26.77" y="17.56" width="1.78" height="1.78" transform="translate(-0.21 0.32) rotate(-0.66)"/><rect x="29.56" y="14.71" width="1.78" height="1.78" transform="translate(-0.18 0.35) rotate(-0.66)"/><rect x="31.66" y="12.56" width="1.78" height="1.78" transform="translate(-0.15 0.37) rotate(-0.66)"/><rect x="16.64" y="34.94" width="1.78" height="1.78" transform="translate(-0.41 0.2) rotate(-0.66)"/><rect x="18.74" y="32.79" width="1.78" height="1.78" transform="translate(-0.38 0.23) rotate(-0.66)"/><rect x="20.84" y="30.63" width="1.78" height="1.78" transform="translate(-0.36 0.25) rotate(-0.66)"/><rect x="22.94" y="28.49" width="1.78" height="1.78" transform="translate(-0.33 0.27) rotate(-0.66)"/><rect x="26.12" y="25.33" width="1.78" height="1.78" transform="translate(-0.3 0.31) rotate(-0.66)"/><rect x="28.22" y="23.17" width="1.78" height="1.78" transform="translate(-0.27 0.33) rotate(-0.66)"/><rect x="30.33" y="21.02" width="1.78" height="1.78" transform="translate(-0.25 0.36) rotate(-0.66)"/><rect x="33.2" y="18.06" width="1.78" height="1.78" transform="translate(-0.21 0.39) rotate(-0.66)"/><rect x="35.31" y="15.91" width="1.78" height="1.78" transform="translate(-0.19 0.42) rotate(-0.66)"/><rect x="20.15" y="38.37" width="1.78" height="1.78" transform="translate(-0.45 0.24) rotate(-0.66)"/><rect x="22.25" y="36.22" width="1.78" height="1.78" transform="translate(-0.42 0.27) rotate(-0.66)"/><rect x="24.35" y="34.07" width="1.78" height="1.78" transform="translate(-0.4 0.29) rotate(-0.66)"/><rect x="26.45" y="31.92" width="1.78" height="1.78" transform="translate(-0.37 0.32) rotate(-0.66)"/><rect x="28.56" y="29.77" width="1.78" height="1.78" transform="translate(-0.35 0.34) rotate(-0.66)"/><rect x="31.54" y="26.71" width="1.78" height="1.78" transform="translate(-0.31 0.37) rotate(-0.66)"/><rect x="33.64" y="24.56" width="1.78" height="1.78" transform="translate(-0.29 0.4) rotate(-0.66)"/><rect x="35.75" y="22.41" width="1.78" height="1.78" transform="translate(-0.26 0.42) rotate(-0.66)"/><rect x="37.85" y="20.26" width="1.78" height="1.78" transform="translate(-0.24 0.44) rotate(-0.66)"/><rect x="40.08" y="18.11" width="1.78" height="1.78" transform="translate(-0.21 0.47) rotate(-0.66)"/><rect x="23.47" y="41.62" width="1.78" height="1.78" transform="translate(-0.49 0.28) rotate(-0.66)"/><rect x="25.57" y="39.46" width="1.78" height="1.78" transform="translate(-0.46 0.31) rotate(-0.66)"/><rect x="27.67" y="37.31" width="1.78" height="1.78" transform="translate(-0.44 0.33) rotate(-0.66)"/><polygon class="cls-2" points="38.38 37.58 34.1 37.25 34.1 35.27 40.36 29.67 49.92 29.67 58.16 38.24 60.14 38.9 60.14 37.25 66.01 37.32 66.01 52.71 60.12 52.65 60.14 49.78 57.47 47.9 43.32 47.9 41.68 46.48 38.38 46.48 32.45 41.21 32.45 38.57 37.07 38.57 39.37 41.21 42.34 41.21 44.32 37.58 42.34 35.27 39.7 35.27 38.38 37.58"/><polygon points="65.69 52.82 59.67 52.2 59.67 37.75 65.69 37.75 65.69 52.82"/><line class="cls-1" x1="28.71" y1="37.97" x2="52.69" y2="38.39"/></g></g></svg>