<svg xmlns="http://www.w3.org/2000/svg" viewBox="0 0 53.15 52.1"><defs><style>.cls-1{fill:none;}.cls-1,.cls-2{stroke:#000;stroke-miterlimit:10;}.cls-2{fill:#fff;}</style></defs><g id="Layer_2" data-name="Layer 2"><g id="Layer_2-2" data-name="Layer 2"><polygon class="cls-1" points="0.71 24.92 24.93 0.7 51.96 26.61 27.75 51.39 0.71 24.92"/><rect x="9.04" y="24.79" width="1.52" height="1.52" transform="translate(-0.29 0.11) rotate(-0.66)"/><rect x="10.84" y="22.95" width="1.52" height="1.52" transform="translate(-0.27 0.13) rotate(-0.66)"/><rect x="12.63" y="21.12" width="1.52" height="1.52" transform="translate(-0.25 0.15) rotate(-0.66)"/><rect x="15.27" y="18.4" width="1.52" height="1.52" transform="translate(-0.22 0.18) rotate(-0.66)"/><rect x="17.07" y="16.56" width="1.52" height="1.52" transform="translate(-0.2 0.21) rotate(-0.66)"/><rect x="19.69" y="13.88" width="1.52" height="1.52" transform="translate(-0.17 0.24) rotate(-0.66)"/><rect x="21.48" y="12.04" width="1.52" height="1.52" transform="translate(-0.15 0.26) rotate(-0.66)"/><rect x="23.28" y="10.2" width="1.52" height="1.52" transform="translate(-0.12 0.28) rotate(-0.66)"/><rect x="11.28" y="26.98" width="1.52" height="1.52" transform="translate(-0.32 0.14) rotate(-0.66)"/><rect x="13.08" y="25.14" width="1.52" height="1.52" transform="translate(-0.3 0.16) rotate(-0.66)"/><rect x="14.87" y="23.31" width="1.52" height="1.52" transform="translate(-0.27 0.18) rotate(-0.66)"/><rect x="16.67" y="21.47" width="1.52" height="1.52" transform="translate(-0.25 0.2) rotate(-0.66)"/><rect x="18.46" y="19.71" width="1.52" height="1.52" transform="translate(-0.23 0.22) rotate(-0.66)"/><rect x="21.18" y="16.94" width="1.52" height="1.52" transform="translate(-0.2 0.25) rotate(-0.66)"/><rect x="22.97" y="15.1" width="1.52" height="1.52" transform="translate(-0.18 0.27) rotate(-0.66)"/><rect x="25.35" y="12.67" width="1.52" height="1.52" transform="translate(-0.15 0.3) rotate(-0.66)"/><rect x="27.15" y="10.83" width="1.52" height="1.52" transform="translate(-0.13 0.32) rotate(-0.66)"/><rect x="14.31" y="29.95" width="1.52" height="1.52" transform="translate(-0.35 0.17) rotate(-0.66)"/><rect x="16.11" y="28.11" width="1.52" height="1.52" transform="translate(-0.33 0.2) rotate(-0.66)"/><rect x="17.91" y="26.27" width="1.52" height="1.52" transform="translate(-0.31 0.22) rotate(-0.66)"/><rect x="19.7" y="24.43" width="1.52" height="1.52" transform="translate(-0.29 0.24) rotate(-0.66)"/><rect x="22.42" y="21.74" width="1.52" height="1.52" transform="translate(-0.26 0.27) rotate(-0.66)"/><rect x="24.21" y="19.9" width="1.52" height="1.52" transform="translate(-0.23 0.29) rotate(-0.66)"/><rect x="26.01" y="18.06" width="1.52" height="1.52" transform="translate(-0.21 0.31) rotate(-0.66)"/><rect x="28.47" y="15.53" width="1.52" height="1.52" transform="translate(-0.18 0.34) rotate(-0.66)"/><rect x="30.26" y="13.69" width="1.52" height="1.52" transform="translate(-0.16 0.36) rotate(-0.66)"/><rect x="17.31" y="32.88" width="1.52" height="1.52" transform="translate(-0.38 0.21) rotate(-0.66)"/><rect x="19.11" y="31.04" width="1.52" height="1.52" transform="translate(-0.36 0.23) rotate(-0.66)"/><rect x="20.91" y="29.2" width="1.52" height="1.52" transform="translate(-0.34 0.25) rotate(-0.66)"/><rect x="22.7" y="27.37" width="1.52" height="1.52" transform="translate(-0.32 0.27) rotate(-0.66)"/><rect x="24.5" y="25.53" width="1.52" height="1.52" transform="translate(-0.3 0.29) rotate(-0.66)"/><rect x="27.04" y="22.92" width="1.52" height="1.52" transform="translate(-0.27 0.32) rotate(-0.66)"/><rect x="28.84" y="21.08" width="1.52" height="1.52" transform="translate(-0.25 0.34) rotate(-0.66)"/><rect x="30.64" y="19.25" width="1.52" height="1.52" transform="translate(-0.23 0.36) rotate(-0.66)"/><rect x="32.43" y="17.41" width="1.52" height="1.52" transform="translate(-0.21 0.38) rotate(-0.66)"/><rect x="34.34" y="15.57" width="1.52" height="1.52" transform="translate(-0.18 0.4) rotate(-0.66)"/><rect x="20.15" y="35.65" width="1.52" height="1.52" transform="translate(-0.42 0.24) rotate(-0.66)"/><rect x="21.95" y="33.81" width="1.52" height="1.52" transform="translate(-0.39 0.26) rotate(-0.66)"/><rect x="23.74" y="31.97" width="1.52" height="1.52" transform="translate(-0.37 0.28) rotate(-0.66)"/><polygon class="cls-2" points="29.05 34.38 25.39 34.1 25.39 32.41 30.74 27.62 38.91 27.62 45.95 34.94 47.64 35.51 47.64 34.1 52.65 34.16 52.65 47.3 47.62 47.25 47.64 44.8 45.35 43.2 33.26 43.2 31.87 41.98 29.05 41.98 23.98 37.48 23.98 35.23 27.92 35.23 29.89 37.48 32.43 37.48 34.12 34.38 32.43 32.41 30.18 32.41 29.05 34.38"/><polygon points="52.38 47.4 47.23 46.87 47.23 34.53 52.38 34.53 52.38 47.4"/><line class="cls-1" x1="21.77" y1="34.31" x2="42.26" y2="34.67"/></g></g></svg>