<svg xmlns="http://www.w3.org/2000/svg" viewBox="0 0 42.06 41.96"><defs><style>.cls-1,.cls-2,.cls-3,.cls-4,.cls-6{stroke:#000;stroke-miterlimit:10;}.cls-1,.cls-2{stroke-width:0.25px;}.cls-2,.cls-4,.cls-5{fill:#fff;}.cls-3{fill:none;}.cls-4{stroke-width:1.75px;}.cls-6{fill:lime;stroke-width:2px;}</style></defs><g id="Layer_2" data-name="Layer 2"><g id="Layer_2-2" data-name="Layer 2"><rect class="cls-1" x="0.13" y="0.13" width="41.81" height="41.71"/><polygon class="cls-2" points="12.04 35.03 12.04 33.59 14.92 33.59 14.93 32.78 16.05 32.78 16.05 13.22 17.39 13.22 17.39 10.45 18.73 10.45 18.73 9.45 20.09 9.45 20.08 7.95 22.43 7.95 22.43 6.54 32.12 6.44 32.13 7.95 35.13 7.95 35.13 9.21 36.63 9.22 36.63 10.95 38.14 10.96 38.14 13.2 38.89 13.21 38.89 28.48 38.14 28.48 38.14 31.27 36.63 31.27 36.63 32.02 35.13 32.02 35.13 33.53 32.87 33.53 32.87 35.03 12.04 35.03"/><rect class="cls-3" x="0.51" y="0.73" width="40.87" height="40.32"/><rect x="24.87" y="27.87" width="3.9" height="3.7"/><polygon points="24.87 26.75 24.87 23.36 26.38 23.36 26.38 21.85 27.57 21.85 27.57 20.37 28.77 20.35 28.77 18.95 30.13 18.95 30.13 15.04 24.87 15.08 24.87 17.56 21.11 17.56 21.11 13.82 22.41 13.82 22.39 12.07 23.37 12.07 23.37 11.32 31.39 11.32 31.39 12.2 33.15 12.23 33.15 13.57 33.97 13.59 33.95 20.32 33.15 20.35 33.15 21.85 31.64 21.85 31.64 22.61 30.14 22.61 30.14 24.11 28.63 24.11 28.63 26.71 24.87 26.75"/><line class="cls-4" x1="6.39" y1="7.11" x2="6.39" y2="11.9"/><polygon class="cls-5" points="9.38 40.3 9.38 35.03 5.37 35.03 5.37 33.9 9.38 33.9 9.38 27.32 6.98 27.32 6.97 26 12.04 26 12.04 1.49 1.29 1.49 1.29 40.3 9.38 40.3"/><line class="cls-6" x1="6.35" y1="6.11" x2="6.35" y2="11.48"/></g></g></svg>