<svg xmlns="http://www.w3.org/2000/svg" viewBox="0 0 49.83 49.71"><defs><style>.cls-1,.cls-4,.cls-7{fill:lime;}.cls-1,.cls-2,.cls-3,.cls-7{stroke:lime;}.cls-1,.cls-2,.cls-3,.cls-5,.cls-7{stroke-miterlimit:10;}.cls-1,.cls-2{stroke-width:0.25px;}.cls-2,.cls-5,.cls-6{fill:#fff;}.cls-3{fill:none;}.cls-5{stroke:#000;stroke-width:1.75px;}.cls-7{stroke-width:2px;}</style></defs><g id="Layer_2" data-name="Layer 2"><g id="Layer_2-2" data-name="Layer 2"><rect class="cls-1" x="0.13" y="0.13" width="49.58" height="49.46"/><polygon class="cls-2" points="14.26 41.51 14.26 39.81 17.67 39.81 17.67 38.84 19.01 38.84 19.01 15.66 20.6 15.66 20.6 12.37 22.18 12.37 22.19 11.18 23.79 11.18 23.79 9.4 26.57 9.4 26.57 7.73 38.06 7.61 38.08 9.41 41.63 9.4 41.63 10.9 43.41 10.91 43.41 12.96 45.2 12.97 45.2 15.63 46.09 15.64 46.09 33.75 45.2 33.75 45.2 37.06 43.41 37.06 43.41 37.95 41.63 37.95 41.63 39.73 38.95 39.73 38.95 41.52 14.26 41.51"/><rect class="cls-3" x="0.59" y="0.84" width="48.46" height="47.81"/><rect class="cls-4" x="29.47" y="33.03" width="4.62" height="4.38"/><polygon class="cls-4" points="29.47 31.69 29.47 27.67 31.25 27.67 31.25 25.89 32.67 25.89 32.67 24.14 34.09 24.1 34.09 22.45 35.7 22.45 35.7 17.81 29.47 17.86 29.47 20.8 25.01 20.8 25.01 16.37 26.54 16.37 26.53 14.29 27.68 14.29 27.68 13.4 37.2 13.4 37.2 14.44 39.28 14.48 39.28 16.07 40.26 16.09 40.24 24.07 39.28 24.1 39.28 25.89 37.5 25.89 37.5 26.78 35.71 26.78 35.71 28.57 33.93 28.57 33.92 31.65 29.47 31.69"/><line class="cls-5" x1="7.56" y1="8.4" x2="7.56" y2="14.08"/><polygon class="cls-6" points="11.1 47.77 11.1 41.51 6.34 41.52 6.34 40.17 11.1 40.17 11.1 32.37 8.26 32.37 8.25 30.81 14.26 30.81 14.26 1.74 1.5 1.74 1.5 47.77 11.1 47.77"/><line class="cls-7" x1="7.5" y1="7.23" x2="7.5" y2="13.59"/></g></g></svg>