<svg xmlns="http://www.w3.org/2000/svg" viewBox="0 0 39.05 48.18"><defs><style>.cls-1{fill:none;stroke:#000;stroke-miterlimit:10;}</style></defs><g id="Layer_2" data-name="Layer 2"><g id="Layer_2-2" data-name="Layer 2"><polygon class="cls-1" points="0.5 41.33 0.5 3.71 3.28 0.5 35.25 0.5 38.55 3.28 38.55 41.33 0.5 41.33"/><rect class="cls-1" x="2.36" y="41.33" width="34.51" height="6.35"/><line class="cls-1" x1="24.63" y1="34.84" x2="32.02" y2="34.84"/><line class="cls-1" x1="5.14" y1="36.69" x2="6.85" y2="36.69"/><polygon class="cls-1" points="5.14 25.53 5.14 6.71 6.95 4.98 31.74 4.98 33.45 6.36 33.45 25.53 32.5 27.41 6.95 27.41 5.14 25.53"/><rect x="8.39" y="8.39" width="1.86" height="1.86"/><rect x="11.54" y="8.39" width="1.86" height="1.86"/><rect x="14.7" y="8.39" width="1.86" height="1.86"/><rect x="17.85" y="8.39" width="1.86" height="1.86"/><rect x="21.01" y="8.39" width="1.86" height="1.86"/><rect x="24.17" y="8.39" width="1.86" height="1.86"/><rect x="8.39" y="12.03" width="1.86" height="1.86"/><rect x="11.54" y="12.03" width="1.86" height="1.86"/><rect x="14.7" y="12.03" width="1.86" height="1.86"/><rect x="17.85" y="12.03" width="1.86" height="1.86"/><rect x="8.39" y="15.74" width="1.86" height="1.86"/><rect x="11.54" y="15.74" width="1.86" height="1.86"/><rect x="8.39" y="19.46" width="1.86" height="1.86"/><rect x="11.54" y="19.46" width="1.86" height="1.86"/><rect x="8.39" y="23.17" width="1.86" height="1.86"/><rect x="11.54" y="23.17" width="1.86" height="1.86"/><rect x="14.7" y="23.24" width="1.86" height="1.86"/></g></g></svg>