<svg xmlns="http://www.w3.org/2000/svg" viewBox="0 0 42 51.84"><defs><style>.cls-1{fill:none;stroke:#39ff14;stroke-miterlimit:10;}.cls-2{fill:lime;}</style></defs><g id="Layer_2" data-name="Layer 2"><g id="Layer_2-2" data-name="Layer 2"><polygon class="cls-1" points="0.5 44.5 0.5 3.96 3.5 0.5 37.95 0.5 41.5 3.5 41.5 44.5 0.5 44.5"/><rect class="cls-1" x="2.5" y="44.5" width="37.19" height="6.84"/><line class="cls-1" x1="26.5" y1="37.5" x2="34.46" y2="37.5"/><line class="cls-1" x1="5.5" y1="39.5" x2="7.35" y2="39.5"/><polygon class="cls-1" points="5.5 27.47 5.5 7.19 7.45 5.33 34.17 5.33 36 6.82 36 27.47 34.98 29.5 7.45 29.5 5.5 27.47"/><rect class="cls-2" x="9" y="9" width="2" height="2"/><rect class="cls-2" x="12.4" y="9" width="2" height="2"/><rect class="cls-2" x="15.8" y="9" width="2" height="2"/><rect class="cls-2" x="19.2" y="9" width="2" height="2"/><rect class="cls-2" x="22.6" y="9" width="2" height="2"/><rect class="cls-2" x="26" y="9" width="2" height="2"/><rect class="cls-2" x="9" y="12.93" width="2" height="2"/><rect class="cls-2" x="12.4" y="12.93" width="2" height="2"/><rect class="cls-2" x="15.8" y="12.93" width="2" height="2"/><rect class="cls-2" x="19.2" y="12.93" width="2" height="2"/><rect class="cls-2" x="9" y="16.93" width="2" height="2"/><rect class="cls-2" x="12.4" y="16.93" width="2" height="2"/><rect class="cls-2" x="9" y="20.93" width="2" height="2"/><rect class="cls-2" x="12.4" y="20.93" width="2" height="2"/><rect class="cls-2" x="9" y="24.93" width="2" height="2"/><rect class="cls-2" x="12.4" y="24.93" width="2" height="2"/><rect class="cls-2" x="15.8" y="25" width="2" height="2"/></g></g></svg>